# xmcd
#
# Track frame offsets:
#	150
#	15595
#	31257
#	46997
#	61835
#	76420
#	94900
#	111970
#	124472
#	140872
#	156942
#	168912
#	183747
#	203367
#	217260
#	229900
#	244820
#	260212
#	276582
#	289335
#
# Disc length: 4086
#
# Revision: 1
# Processed by: cddbd v1.5.1PL0 Copyright (c) Steve Scherf et al.
# Submitted via: ExactAudioCopy v0.95a3
# Normalized: r0:TRMNUM
#
DISCID=390ff414
DTITLE=Carmen Silva - 20 super Sucessos
DYEAR=1900
DGENRE=
TTITLE0=Fofurinha
TTITLE1=Tempero bom
TTITLE2=Sempre juntos
TTITLE3=Se você quer amor
TTITLE4=Que saudade de você
TTITLE5=Onde andará você
TTITLE6=Personagem principal
TTITLE7=Ser tua namorada
TTITLE8=Te amo...Te amo
TTITLE9=Formiguinha
TTITLE10=O destino nos separou
TTITLE11=Chorando na estação
TTITLE12=Minha doce loucura
TTITLE13=Dor bandida
TTITLE14=Prisioneira do amor
TTITLE15=Não judia não
TTITLE16=Nunca mais solidão
TTITLE17=é sempre um começo
TTITLE18=O teu sorrisso
TTITLE19=Baile na fazenda
EXTD=
EXTT0=
EXTT1=
EXTT2=
EXTT3=
EXTT4=
EXTT5=
EXTT6=
EXTT7=
EXTT8=
EXTT9=
EXTT10=
EXTT11=
EXTT12=
EXTT13=
EXTT14=
EXTT15=
EXTT16=
EXTT17=
EXTT18=
EXTT19=
PLAYORDER=
